# xmcd CD database file
#
# Track frame offsets:
#	150
#	26820
#	54510
#	70828
#	93780
#	127658
#	145638
#	183985
#	210035
#
# Disc length: 3079 seconds
#
# Revision: 4
# Processed by: cddbd v1.5PL3 Copyright (c) Steve Scherf et al.
# Submitted via: CDex 1.50Beta3
#
DISCID=6a0c0509
DTITLE=ego-wrappin' - 満ち汐のロマンス
DYEAR=1900
DGENRE=
TTITLE0=かつて..。
TTITLE1=Room #1102
TTITLE2=サイコアナルシス
TTITLE3=Crazy Fruits
TTITLE4=Calling me
TTITLE5=満ち汐のロマンス
TTITLE6=KIND OF YOU
TTITLE7=Wherever You May Be
TTITLE8=PARANOIA
EXTD=\n
EXTT0=
EXTT1=
EXTT2=
EXTT3=
EXTT4=
EXTT5=
EXTT6=
EXTT7=
EXTT8=
PLAYORDER=
